<?xml version="1.0" encoding="UTF-8" standalone="no"?>
<!-- Created with Inkscape (http://www.inkscape.org/) -->

<svg
   xmlns:dc="http://purl.org/dc/elements/1.1/"
   xmlns:cc="http://creativecommons.org/ns#"
   xmlns:rdf="http://www.w3.org/1999/02/22-rdf-syntax-ns#"
   xmlns:svg="http://www.w3.org/2000/svg"
   xmlns="http://www.w3.org/2000/svg"
   xmlns:sodipodi="http://sodipodi.sourceforge.net/DTD/sodipodi-0.dtd"
   xmlns:inkscape="http://www.inkscape.org/namespaces/inkscape"
   width="967.55908"
   height="967.55908"
   viewBox="0 0 256 256"
   version="1.1"
   id="svg8"
   inkscape:version="0.92.5 (2060ec1f9f, 2020-04-08)"
   sodipodi:docname="jump_cost.svg">
  <defs
     id="defs2" />
  <sodipodi:namedview
     id="base"
     pagecolor="#ffffff"
     bordercolor="#666666"
     borderopacity="1.0"
     inkscape:pageopacity="0.0"
     inkscape:pageshadow="2"
     inkscape:zoom="0.7"
     inkscape:cx="284.61192"
     inkscape:cy="440.16238"
     inkscape:document-units="mm"
     inkscape:current-layer="layer1"
     showgrid="false"
     units="px"
     inkscape:snap-global="true"
     inkscape:window-width="1918"
     inkscape:window-height="1044"
     inkscape:window-x="0"
     inkscape:window-y="17"
     inkscape:window-maximized="1"
     showguides="false">
    <inkscape:grid
       type="xygrid"
       id="grid822" />
  </sodipodi:namedview>
  <metadata
     id="metadata5">
    <rdf:RDF>
      <cc:Work
         rdf:about="">
        <dc:format>image/svg+xml</dc:format>
        <dc:type
           rdf:resource="http://purl.org/dc/dcmitype/StillImage" />
        <dc:title></dc:title>
      </cc:Work>
    </rdf:RDF>
  </metadata>
  <g
     inkscape:label="レイヤー 1"
     inkscape:groupmode="layer"
     id="layer1"
     transform="translate(0,-41)">
    <path
       style="fill:#bdbdbd;fill-opacity:1;stroke:none;stroke-width:1.86887121px;stroke-linecap:butt;stroke-linejoin:miter;stroke-opacity:1"
       d="M 604.95898 6.1308594 L 357.14258 12.179688 L 351.17578 210.75195 C 303.24663 505.86256 225.70247 446.82093 255.88086 573.77734 C 348.17093 504.65103 341.28708 505.81174 527.98047 376.97656 C 732.52442 235.82292 695.23577 264.20569 709.66211 222.0957 L 604.95898 6.1308594 z M 626.05078 522.85352 L 662.35352 949.40625 L 689.58008 522.85352 L 626.05078 522.85352 z M 513.94922 528.56836 L 550.25195 955.12109 L 577.47852 528.56836 L 513.94922 528.56836 z M 408.99219 529.99609 L 445.29492 956.54883 L 472.52148 529.99609 L 408.99219 529.99609 z M 311.0918 534.2832 L 347.39453 960.83594 L 374.62109 534.2832 L 311.0918 534.2832 z "
       transform="matrix(0.26458333,0,0,0.26458333,0,41)"
       id="path846" />
  </g>
</svg>
