<?xml version="1.0" encoding="UTF-8" standalone="no"?>
<!-- Created with Inkscape (http://www.inkscape.org/) -->

<svg
   xmlns:dc="http://purl.org/dc/elements/1.1/"
   xmlns:cc="http://creativecommons.org/ns#"
   xmlns:rdf="http://www.w3.org/1999/02/22-rdf-syntax-ns#"
   xmlns:svg="http://www.w3.org/2000/svg"
   xmlns="http://www.w3.org/2000/svg"
   xmlns:sodipodi="http://sodipodi.sourceforge.net/DTD/sodipodi-0.dtd"
   xmlns:inkscape="http://www.inkscape.org/namespaces/inkscape"
   width="2048"
   height="256"
   viewBox="0 0 541.86664 67.733335"
   version="1.1"
   id="svg8"
   inkscape:version="0.92.5 (2060ec1f9f, 2020-04-08)"
   sodipodi:docname="shinki_back.svg">
  <defs
     id="defs2" />
  <sodipodi:namedview
     id="base"
     pagecolor="#ffffff"
     bordercolor="#666666"
     borderopacity="1.0"
     inkscape:pageopacity="0.0"
     inkscape:pageshadow="2"
     inkscape:zoom="0.9899495"
     inkscape:cx="662.32102"
     inkscape:cy="45.835592"
     inkscape:document-units="mm"
     inkscape:current-layer="layer1"
     showgrid="false"
     units="px"
     inkscape:window-width="1918"
     inkscape:window-height="1044"
     inkscape:window-x="0"
     inkscape:window-y="17"
     inkscape:window-maximized="1" />
  <metadata
     id="metadata5">
    <rdf:RDF>
      <cc:Work
         rdf:about="">
        <dc:format>image/svg+xml</dc:format>
        <dc:type
           rdf:resource="http://purl.org/dc/dcmitype/StillImage" />
        <dc:title />
      </cc:Work>
    </rdf:RDF>
  </metadata>
  <g
     inkscape:label="レイヤー 1"
     inkscape:groupmode="layer"
     id="layer1"
     transform="translate(0,-229.26665)">
    <g
       transform="matrix(0.26458333,0,0,0.26458333,0,229.26665)"
       style="font-style:normal;font-weight:normal;font-size:266.66665649px;line-height:1.25;font-family:sans-serif;letter-spacing:0px;word-spacing:0px;fill:#000000;fill-opacity:1;stroke:none"
       id="flowRoot816" />
    <g
       aria-label="神姫"
       style="font-style:normal;font-weight:normal;font-size:39.16186142px;line-height:1.25;font-family:sans-serif;letter-spacing:0px;word-spacing:0px;fill:#464646;fill-opacity:1;stroke:none;stroke-width:0.40793607"
       id="text826">
      <path
         d="m 81.009121,259.21584 q 6.814164,4.69942 12.061853,9.71214 l -3.602891,5.16937 q -3.446244,-4.30781 -8.458962,-8.92891 v 31.72111 h -5.560985 v -30.7029 q -5.48266,6.34422 -10.417055,10.26041 l -3.211272,-5.01272 q 13.550004,-9.94711 21.852318,-26.47342 H 64.16952 v -5.09104 H 74.586575 V 226.3982 h 5.560985 v 13.47168 h 7.36243 l 2.976301,2.66301 q -3.211272,7.91069 -9.47717,16.60463 z M 109.9889,239.47826 V 226.3982 h 5.40434 v 13.08006 h 15.89971 v 43.46967 h -5.16936 v -5.71763 h -10.73035 v 19.65925 H 109.9889 V 277.2303 H 99.415196 v 6.42254 h -5.091042 v -44.17458 z m -10.573704,4.69943 v 11.51358 h 10.730354 v -11.51358 z m 0,16.05636 v 12.29682 h 10.730354 v -12.29682 z m 26.708394,12.29682 v -12.29682 h -10.80868 v 12.29682 z m 0,-16.8396 v -11.51358 h -10.80868 v 11.51358 z"
         style="font-style:normal;font-variant:normal;font-weight:normal;font-stretch:normal;font-size:78.32372284px;font-family:'IPA モナー UIゴシック';-inkscape-font-specification:'IPA モナー UIゴシック';fill:#777777;fill-opacity:1;stroke-width:0.40793607"
         id="path819"
         inkscape:connector-curvature="0" />
      <path
         d="m 168.96651,242.21959 q -1.17486,22.24394 -6.65752,34.38412 4.38613,3.28959 8.69394,7.04913 l -3.13295,4.77775 q -4.54278,-4.46445 -7.75405,-7.12746 -4.85607,9.39885 -12.92342,16.21301 l -3.68121,-4.46445 q 7.51908,-5.56099 12.61012,-15.11648 -3.75954,-2.9763 -6.73584,-4.93439 -0.78324,2.50636 -1.72312,5.32601 l -4.38613,-1.95809 q 3.75954,-12.14018 6.97081,-29.21475 h -7.51908 v -4.9344 h 8.38064 q 0.78324,-4.15115 2.42804,-15.58642 l 5.01271,1.17486 q -1.0182,6.97081 -1.87977,12.45347 l -0.39161,1.95809 z m -5.56099,4.9344 h -7.98902 l -0.0783,0.62659 q -1.95809,10.5737 -4.69942,20.75578 3.91618,2.42804 7.51908,5.01272 3.99451,-9.63382 5.24768,-26.39509 z m 31.64279,-11.12197 v 14.25492 h 12.53179 v 22.55723 h -12.53179 v 15.27312 h 16.99625 v 4.77775 h -33.05261 v 3.99451 h -5.24769 v -65.63528 h 36.57717 v 4.77775 z m -5.16937,0 h -10.88699 v 14.25492 h 10.88699 z m 12.61012,18.95434 h -23.49711 v 13.15839 h 23.49711 z m -12.61012,17.85781 h -10.88699 v 15.27312 h 10.88699 z"
         style="font-style:normal;font-variant:normal;font-weight:normal;font-stretch:normal;font-size:78.32372284px;font-family:'IPA モナー UIゴシック';-inkscape-font-specification:'IPA モナー UIゴシック';fill:#777777;fill-opacity:1;stroke-width:0.40793607"
         id="path821"
         inkscape:connector-curvature="0" />
    </g>
  </g>
</svg>
