<?xml version="1.0" encoding="UTF-8" standalone="no"?>
<!-- Created with Inkscape (http://www.inkscape.org/) -->

<svg
   xmlns:dc="http://purl.org/dc/elements/1.1/"
   xmlns:cc="http://creativecommons.org/ns#"
   xmlns:rdf="http://www.w3.org/1999/02/22-rdf-syntax-ns#"
   xmlns:svg="http://www.w3.org/2000/svg"
   xmlns="http://www.w3.org/2000/svg"
   xmlns:sodipodi="http://sodipodi.sourceforge.net/DTD/sodipodi-0.dtd"
   xmlns:inkscape="http://www.inkscape.org/namespaces/inkscape"
   width="967.55908"
   height="967.55908"
   viewBox="0 0 256 256"
   version="1.1"
   id="svg8"
   inkscape:version="0.92.5 (2060ec1f9f, 2020-04-08)"
   sodipodi:docname="spd.svg">
  <defs
     id="defs2" />
  <sodipodi:namedview
     id="base"
     pagecolor="#ffffff"
     bordercolor="#666666"
     borderopacity="1.0"
     inkscape:pageopacity="0.0"
     inkscape:pageshadow="2"
     inkscape:zoom="0.7"
     inkscape:cx="375.34982"
     inkscape:cy="478.73381"
     inkscape:document-units="mm"
     inkscape:current-layer="layer1"
     showgrid="false"
     units="px"
     inkscape:snap-global="true"
     inkscape:window-width="1918"
     inkscape:window-height="1044"
     inkscape:window-x="0"
     inkscape:window-y="17"
     inkscape:window-maximized="1"
     showguides="false">
    <inkscape:grid
       type="xygrid"
       id="grid822" />
  </sodipodi:namedview>
  <metadata
     id="metadata5">
    <rdf:RDF>
      <cc:Work
         rdf:about="">
        <dc:format>image/svg+xml</dc:format>
        <dc:type
           rdf:resource="http://purl.org/dc/dcmitype/StillImage" />
        <dc:title />
      </cc:Work>
    </rdf:RDF>
  </metadata>
  <g
     inkscape:label="レイヤー 1"
     inkscape:groupmode="layer"
     id="layer1"
     transform="translate(0,-41)">
    <path
       style="fill:#fff627;fill-opacity:1;stroke:none;stroke-width:1.86887121px;stroke-linecap:butt;stroke-linejoin:miter;stroke-opacity:1"
       d="M 263.5293 47.558594 L 45.714844 195.03711 L 272.60547 542.18164 C 224.67632 837.29225 147.13216 778.25062 177.31055 905.20703 C 269.60062 836.08072 262.71675 837.24142 449.41016 708.40625 C 653.95411 567.25261 616.66545 595.63537 631.0918 553.52539 L 263.5293 47.558594 z M 347.47852 47.558594 L 347.47852 111.08789 L 833.02539 74.785156 L 347.47852 47.558594 z M 424.62109 126.9707 L 424.62109 190.5 L 910.16797 154.19727 L 424.62109 126.9707 z M 492.68945 206.38281 L 492.68945 269.91211 L 919.24414 233.60938 L 492.68945 206.38281 z M 565.29492 292.60156 L 565.29492 356.13086 L 932.85742 319.82812 L 565.29492 292.60156 z "
       transform="matrix(0.26458333,0,0,0.26458333,0,41)"
       id="path819-7" />
  </g>
</svg>
