<?xml version="1.0"?>
<svg width="16" height="16" xmlns="http://www.w3.org/2000/svg" xmlns:svg="http://www.w3.org/2000/svg">
 <!-- Created with SVG-edit - https://github.com/SVG-Edit/svgedit-->
 <g class="layer">
  <title>Layer 1</title>
  <ellipse cx="226" cy="186" fill="#FF0000" id="svg_2" rx="0" ry="0" stroke="#000000" stroke-width="5"/>
  <ellipse cx="203" cy="253" fill="#FF0000" id="svg_3" rx="0" ry="0" stroke="#000000" stroke-width="5"/>
  <ellipse cx="228" cy="160" fill="#FF0000" id="svg_4" rx="0" ry="0" stroke="#000000" stroke-width="5"/>
  <ellipse cx="193" cy="187" fill="#FF0000" id="svg_5" rx="0" ry="0" stroke="#000000" stroke-width="5"/>
  <ellipse cx="154" cy="191" fill="#FF0000" id="svg_6" rx="0" ry="0" stroke="#000000" stroke-width="5"/>
  <ellipse cx="135" cy="208" fill="#FF0000" id="svg_7" rx="0" ry="0" stroke="#000000" stroke-width="5"/>
  <ellipse cx="7" cy="52" fill="#FF0000" id="svg_8" stroke="#000000" stroke-width="5" transform="rotate(26.9664 -2.5 -45.5)"/>
  <rect fill="#FF0000" height="0" id="svg_11" stroke="#000000" stroke-width="5" width="0" x="270" y="249"/>
  <rect fill="#FF0000" height="0" id="svg_12" stroke="#000000" stroke-width="5" width="0" x="450" y="235"/>
  <rect fill="#FF0000" height="0" id="svg_13" stroke="#000000" stroke-width="5" width="0" x="482" y="189"/>
  <rect fill="none" height="0" id="svg_20" stroke="#000000" width="0" x="-14.13335" y="-7.46665"/>
  <rect fill="none" height="0" id="svg_22" stroke="#000000" width="0" x="13.86665" y="10.83335"/>
  <rect fill="none" height="0" id="svg_23" stroke="#000000" width="0" x="12.66665" y="10.83335"/>
  <rect fill="#999999" height="12.007688" id="svg_27" rx="2" ry="2" stroke="#000000" transform="rotate(-16 6.6645 7.94553)" width="2.531311" x="5.398842" y="1.941682"/>
 </g>
</svg>