<?xml version="1.0" encoding="UTF-8" standalone="no"?>
<!-- Created with Inkscape (http://www.inkscape.org/) -->

<svg
   xmlns:dc="http://purl.org/dc/elements/1.1/"
   xmlns:cc="http://creativecommons.org/ns#"
   xmlns:rdf="http://www.w3.org/1999/02/22-rdf-syntax-ns#"
   xmlns:svg="http://www.w3.org/2000/svg"
   xmlns="http://www.w3.org/2000/svg"
   xmlns:xlink="http://www.w3.org/1999/xlink"
   xmlns:sodipodi="http://sodipodi.sourceforge.net/DTD/sodipodi-0.dtd"
   xmlns:inkscape="http://www.inkscape.org/namespaces/inkscape"
   width="256"
   height="256"
   viewBox="0 0 67.733332 67.733335"
   version="1.1"
   id="svg8"
   sodipodi:docname="s0.svg"
   inkscape:version="0.92.5 (2060ec1f9f, 2020-04-08)">
  <defs
     id="defs2">
    <linearGradient
       id="linearGradient918"
       inkscape:collect="always">
      <stop
         id="stop924"
         offset="0"
         style="stop-color:#fff574;stop-opacity:1" />
      <stop
         id="stop926"
         offset="1"
         style="stop-color:#ffa500;stop-opacity:1" />
    </linearGradient>
    <linearGradient
       inkscape:collect="always"
       xlink:href="#linearGradient918"
       id="linearGradient5202"
       gradientUnits="userSpaceOnUse"
       x1="41.426727"
       y1="267.19958"
       x2="40.486412"
       y2="291.92188" />
  </defs>
  <sodipodi:namedview
     id="base"
     pagecolor="#ffffff"
     bordercolor="#666666"
     borderopacity="1.0"
     inkscape:pageopacity="0.0"
     inkscape:pageshadow="2"
     inkscape:zoom="1.979899"
     inkscape:cx="174.55326"
     inkscape:cy="52.506835"
     inkscape:document-units="mm"
     inkscape:current-layer="layer1"
     showgrid="false"
     units="px"
     inkscape:snap-global="false"
     inkscape:window-width="1510"
     inkscape:window-height="1044"
     inkscape:window-x="408"
     inkscape:window-y="17"
     inkscape:window-maximized="0"
     inkscape:pagecheckerboard="true" />
  <metadata
     id="metadata5">
    <rdf:RDF>
      <cc:Work
         rdf:about="">
        <dc:format>image/svg+xml</dc:format>
        <dc:type
           rdf:resource="http://purl.org/dc/dcmitype/StillImage" />
        <dc:title />
      </cc:Work>
    </rdf:RDF>
  </metadata>
  <g
     inkscape:label="レイヤー 1"
     inkscape:groupmode="layer"
     id="layer1"
     transform="translate(0,-229.26665)"
     style="display:inline">
    <use
       x="0"
       y="0"
       xlink:href="#g844"
       id="use889"
       width="100%"
       height="100%"
       inkscape:label="outline2"
       style="stroke:#ffffff;stroke-opacity:1;stroke-width:5.29166667;stroke-miterlimit:4;stroke-dasharray:none;stroke-linecap:round;stroke-linejoin:round" />
    <use
       x="0"
       y="0"
       xlink:href="#g844"
       id="use887"
       width="100%"
       height="100%"
       style="stroke:#000000;stroke-width:2.64583325;stroke-miterlimit:4;stroke-dasharray:none;stroke-opacity:1;stroke-linejoin:round;stroke-linecap:round" />
    <g
       id="g844"
       inkscape:label="main">
      <ellipse
         style="display:inline;fill:#ffffff;fill-opacity:1"
         id="path1257"
         cx="34.691296"
         cy="255.84605"
         rx="13.703231"
         ry="18.689444"
         inkscape:label="円盤" />
      <path
         style="color:#000000;font-style:normal;font-variant:normal;font-weight:normal;font-stretch:normal;font-size:medium;line-height:normal;font-family:sans-serif;font-variant-ligatures:normal;font-variant-position:normal;font-variant-caps:normal;font-variant-numeric:normal;font-variant-alternates:normal;font-feature-settings:normal;text-indent:0;text-align:start;text-decoration:none;text-decoration-line:none;text-decoration-style:solid;text-decoration-color:#000000;letter-spacing:normal;word-spacing:normal;text-transform:none;writing-mode:lr-tb;direction:ltr;text-orientation:mixed;dominant-baseline:auto;baseline-shift:baseline;text-anchor:start;white-space:normal;shape-padding:0;clip-rule:nonzero;display:inline;overflow:visible;visibility:visible;opacity:1;isolation:auto;mix-blend-mode:normal;color-interpolation:sRGB;color-interpolation-filters:linearRGB;solid-color:#000000;solid-opacity:1;vector-effect:none;fill:#ffd133;fill-opacity:1;fill-rule:nonzero;color-rendering:auto;image-rendering:auto;shape-rendering:auto;text-rendering:auto;enable-background:accumulate"
         d="m 45.241887,255.29495 c 0.03592,-4.15614 -1.166512,-7.93811 -3.110787,-10.72746 -1.944276,-2.78934 -4.720297,-4.60294 -7.823182,-4.60294 -3.102886,0 -5.878907,1.8136 -7.823184,4.60294 -1.944275,2.78935 -3.110785,6.57114 -3.110785,10.72746 m 1.931742,0 c 0,-3.74108 1.066557,-7.10804 2.729721,-9.49409 1.663164,-2.38605 3.870623,-3.77264 6.272506,-3.77264 2.401882,0 4.609342,1.38659 6.272505,3.77264 1.663165,2.38605 2.72972,5.75301 2.72972,9.49409"
         id="path1257-3"
         inkscape:connector-curvature="0"
         sodipodi:nodetypes="ccsccccscc" />
      <g
         transform="matrix(1.088673,0,0,1.088673,-2.0552457,-24.342245)"
         id="g5173"
         inkscape:label="Right">
        <g
           id="g873"
           transform="matrix(0.86274059,0,0,0.86274059,4.0669167,36.237826)"
           inkscape:tile-cx="42.345705"
           inkscape:tile-cy="35.747829"
           inkscape:tile-w="22.122746"
           inkscape:tile-h="47.685298"
           inkscape:tile-x0="31.285777"
           inkscape:tile-y0="11.901686"
           style="display:inline">
          <path
             sodipodi:nodetypes="sccs"
             inkscape:connector-curvature="0"
             id="path825"
             d="m 53.879196,267.60034 c 2e-6,11.30555 -8.985466,20.47051 -20.069603,20.47051 v -40.94101 c 11.084133,0 20.069599,9.16495 20.069603,20.4705 z"
             style="fill:#fff0dc;fill-opacity:1" />
          <path
             sodipodi:nodetypes="sssssscs"
             inkscape:connector-curvature="0"
             id="path825-3"
             d="m 53.721178,268.93668 c -0.03341,2.68094 1.426504,11.85318 -0.400377,16.31252 -2.816944,6.87604 -4.688071,11.09554 -4.421498,4.4501 0.941974,-23.48262 -3.84905,-21.09932 -5.4498,-22.70482 -2.360034,-2.36705 -4.811658,5.36692 -8.061235,7.90673 -3.113377,2.43336 -2.11321,5.24117 -2.11321,0.78403 v -28.59785 c 0.105359,-2.95005 20.685571,2.63523 20.44612,21.84929 z"
             style="fill:url(#linearGradient5202);fill-opacity:1" />
          <ellipse
             ry="5.1449385"
             rx="1.9377041"
             cy="275.68524"
             cx="41.359959"
             id="path853"
             style="fill:#002a98;fill-opacity:1" />
          <path
             inkscape:tile-y0="21.170628"
             inkscape:tile-x0="32.816559"
             inkscape:tile-h="21.004114"
             inkscape:tile-w="18.073812"
             inkscape:tile-cy="31.672684"
             inkscape:tile-cx="41.853466"
             sodipodi:nodetypes="cccccccc"
             inkscape:connector-curvature="0"
             id="path827"
             d="m 33.275282,270.98267 c 4.188986,-0.004 7.409873,-2.70561 7.758079,-7.60689 l 8.997386,-1.33635 0.400904,-6.11663 -8.604019,-0.13364 -0.668173,-4.62576 -7.750768,-0.2674 z"
             style="fill:#ffffff;fill-opacity:1" />
          <path
             style="fill:#6a6a6a;fill-opacity:1"
             d="m 40.629842,256.3237 -0.673048,3.65946 -2.672696,-0.40091 c 0,0 -0.0033,4.48444 -1.336346,6.01356 -1.053002,1.20786 -3.073602,1.20272 -3.073602,1.20272 l -0.133633,1.60362 c 1.8519,-0.10808 3.574281,-0.99223 4.543583,-2.40543 1.065694,-1.55375 0.668171,-5.61266 0.668171,-5.61266 l 4.409948,1.06908 0.993822,-5.00757 -2.726199,-0.12187"
             id="path1259"
             inkscape:connector-curvature="0"
             sodipodi:nodetypes="cccsccacccc" />
          <path
             style="fill:#ffdc37;fill-opacity:1"
             d="m 38.249549,260.53895 c 0,0 -0.0033,4.48444 -1.336346,6.01356 -1.053002,1.20786 -3.073602,1.20272 -3.073602,1.20272 l -0.133633,1.60362 c 1.8519,-0.10808 3.497099,-1.04839 4.543583,-2.40543 1.313044,-1.70271 1.46998,-6.28083 1.46998,-6.28083"
             id="path1259-5"
             inkscape:connector-curvature="0"
             sodipodi:nodetypes="csccac" />
        </g>
      </g>
      <use
         x="0"
         y="0"
         inkscape:tiled-clone-of="#g873"
         xlink:href="#g873"
         transform="matrix(-1.088673,0,0,1.088673,70.698244,-24.633215)"
         id="use877"
         width="100%"
         height="100%"
         style="fill:#ff9100;fill-opacity:1" />
      <rect
         y="249.65384"
         x="33.756248"
         height="10.376291"
         width="1.6140898"
         id="rect833"
         style="display:inline;fill:#dbdbdb;fill-opacity:1" />
    </g>
  </g>
</svg>
